<?xml version="1.0" standalone="no"?>
<!DOCTYPE svg PUBLIC "-//W3C//DTD SVG 20010904//EN"
 "http://www.w3.org/TR/2001/REC-SVG-20010904/DTD/svg10.dtd">
<svg version="1.0" xmlns="http://www.w3.org/2000/svg"
 width="640.000000pt" height="640.000000pt" viewBox="0 0 640.000000 640.000000"
 preserveAspectRatio="xMidYMid meet">
<metadata>
Created by potrace 1.11, written by Peter Selinger 2001-2013
</metadata>
<g transform="translate(0.000000,640.000000) scale(0.100000,-0.100000)"
fill="#000000" stroke="none">
<path d="M3055 5965 c-16 -8 -44 -31 -62 -51 -31 -36 -32 -36 -145 -45 -470
-40 -837 -188 -1087 -440 -233 -233 -357 -537 -382 -939 -12 -188 -2 -617 17
-744 15 -98 15 -100 -9 -170 -23 -65 -43 -154 -49 -216 -2 -16 -10 -26 -23
-28 -44 -7 -124 -45 -148 -70 -14 -15 -36 -49 -48 -77 -59 -133 -20 -434 81
-636 127 -251 316 -392 501 -375 l66 6 18 -48 c65 -172 205 -407 345 -575 l82
-99 -27 -54 c-14 -29 -24 -58 -20 -64 12 -19 51 -10 85 20 19 16 38 29 43 30
12 0 8 -35 -13 -95 -11 -32 -20 -64 -20 -72 0 -26 44 -13 92 28 l48 40 0 -28
c0 -15 -9 -52 -20 -81 -11 -29 -20 -57 -20 -62 0 -15 61 -11 90 5 14 8 27 14
30 15 10 0 2 -167 -8 -186 -6 -10 -26 -34 -44 -52 -28 -26 -48 -35 -99 -43
-166 -26 -537 -131 -619 -175 -14 -7 -56 -27 -95 -45 -196 -89 -380 -234 -496
-390 -39 -54 -129 -223 -129 -244 0 -3 985 -5 2189 -5 l2190 0 -8 28 c-27 92
-116 237 -200 326 -172 180 -372 277 -811 390 -74 19 -174 46 -223 60 -48 14
-99 26 -112 26 -31 0 -98 41 -137 84 -34 37 -53 94 -44 130 l6 26 30 -22 c42
-31 52 -17 40 57 -10 62 -13 145 -5 145 2 0 21 -11 41 -25 44 -30 82 -41 94
-29 5 5 5 29 0 54 -19 96 -7 119 23 46 19 -46 41 -64 54 -43 4 7 9 56 11 109
4 89 6 99 32 125 51 53 158 191 212 275 56 85 161 286 183 347 l11 34 90 1
c80 1 97 4 156 34 139 68 280 251 347 449 29 86 38 126 57 248 39 266 -34 428
-206 452 l-53 8 -19 73 c-10 41 -32 103 -48 139 -28 61 -29 69 -18 107 10 30
13 156 13 476 0 409 -2 443 -23 564 -101 571 -435 935 -1003 1096 -126 36
-298 66 -447 79 -101 9 -108 11 -132 40 -57 67 -154 91 -225 56z m54 -393 l26
-29 28 29 c28 28 30 28 147 28 202 0 474 -38 617 -86 194 -66 357 -185 463
-339 83 -121 171 -357 200 -538 24 -150 40 -374 40 -555 l0 -194 -47 35 c-223
161 -431 269 -689 355 -263 88 -472 122 -759 122 -256 0 -463 -29 -685 -96
-149 -44 -192 -61 -367 -140 -87 -39 -248 -131 -335 -191 -42 -29 -79 -53 -82
-53 -10 0 -7 471 4 580 16 152 39 266 82 394 103 310 300 510 603 611 42 14
97 30 123 35 26 6 72 15 102 21 82 17 292 36 403 38 97 1 100 0 126 -27z m58
-1379 c-20 -2 -52 -2 -70 0 -17 2 0 4 38 4 39 0 53 -2 32 -4z m136 0 c-13 -2
-33 -2 -45 0 -13 2 -3 4 22 4 25 0 35 -2 23 -4z m-340 -10 c-7 -2 -21 -2 -30
0 -10 3 -4 5 12 5 17 0 24 -2 18 -5z m460 0 c-7 -2 -19 -2 -25 0 -7 3 -2 5 12
5 14 0 19 -2 13 -5z m-516 -9 c-3 -3 -12 -4 -19 -1 -8 3 -5 6 6 6 11 1 17 -2
13 -5z m-94 -21 c-7 -2 -19 -2 -25 0 -7 3 -2 5 12 5 14 0 19 -2 13 -5z m770 0
c-7 -2 -21 -2 -30 0 -10 3 -4 5 12 5 17 0 24 -2 18 -5z m62 -13 c13 -6 15 -9
5 -9 -8 0 -22 4 -30 9 -18 12 -2 12 25 0z m-975 -20 c-8 -5 -19 -10 -25 -10
-5 0 -3 5 5 10 8 5 20 10 25 10 6 0 3 -5 -5 -10z m1085 -10 c13 -5 14 -9 5 -9
-8 0 -24 4 -35 9 -13 5 -14 9 -5 9 8 0 24 -4 35 -9z m102 -36 c-3 -3 -12 -4
-19 -1 -8 3 -5 6 6 6 11 1 17 -2 13 -5z m-1367 -14 c-8 -5 -19 -10 -25 -10 -5
0 -3 5 5 10 8 5 20 10 25 10 6 0 3 -5 -5 -10z m579 6 c-2 -2 -40 -6 -84 -9
-51 -3 -65 -2 -40 2 43 9 131 14 124 7z m284 -3 c-7 -2 -19 -2 -25 0 -7 3 -2
5 12 5 14 0 19 -2 13 -5z m547 -3 c13 -8 13 -10 -2 -10 -9 0 -20 5 -23 10 -8
13 5 13 25 0z m-467 -7 c-7 -2 -19 -2 -25 0 -7 3 -2 5 12 5 14 0 19 -2 13 -5z
m124 -19 c-3 -3 -12 -4 -19 -1 -8 3 -5 6 6 6 11 1 17 -2 13 -5z m-770 -10 c-3
-3 -12 -4 -19 -1 -8 3 -5 6 6 6 11 1 17 -2 13 -5z m1243 -14 c19 -11 32 -19
29 -20 -11 0 -79 30 -79 35 0 9 14 5 50 -15z m-393 4 c-3 -3 -12 -4 -19 -1 -8
3 -5 6 6 6 11 1 17 -2 13 -5z m-932 -14 c-27 -12 -43 -12 -25 0 8 5 22 9 30 9
10 0 8 -3 -5 -9z m1022 -6 c-3 -3 -12 -4 -19 -1 -8 3 -5 6 6 6 11 1 17 -2 13
-5z m-549 -41 c-15 -2 -42 -2 -60 0 -18 2 -6 4 27 4 33 0 48 -2 33 -4z m90 0
c-10 -2 -26 -2 -35 0 -10 3 -2 5 17 5 19 0 27 -2 18 -5z m942 -15 c10 -6 7 -7
-10 -2 -14 3 -32 11 -40 16 -10 6 -7 7 10 2 14 -3 32 -11 40 -16z m-2384 -45
c-6 -6 -36 9 -36 18 0 5 9 4 20 -3 10 -7 18 -14 16 -15z m631 21 c-3 -3 -12
-4 -19 -1 -8 3 -5 6 6 6 11 1 17 -2 13 -5z m370 0 c-3 -3 -12 -4 -19 -1 -8 3
-5 6 6 6 11 1 17 -2 13 -5z m1140 0 c-3 -3 -12 -4 -19 -1 -8 3 -5 6 6 6 11 1
17 -2 13 -5z m320 0 c-3 -3 -12 -4 -19 -1 -8 3 -5 6 6 6 11 1 17 -2 13 -5z
m203 -14 c-8 -5 -22 -9 -30 -9 -10 0 -8 3 5 9 27 12 43 12 25 0z m-2437 -7
c-7 -2 -19 -2 -25 0 -7 3 -2 5 12 5 14 0 19 -2 13 -5z m694 1 c-3 -3 -12 -4
-19 -1 -8 3 -5 6 6 6 11 1 17 -2 13 -5z m-57 -14 c-8 -5 -19 -10 -25 -10 -5 0
-3 5 5 10 8 5 20 10 25 10 6 0 3 -5 -5 -10z m1360 0 c8 -5 11 -10 5 -10 -5 0
-17 5 -25 10 -8 5 -10 10 -5 10 6 0 17 -5 25 -10z m-2137 -7 c-7 -2 -21 -2
-30 0 -10 3 -4 5 12 5 17 0 24 -2 18 -5z m50 0 c-7 -2 -19 -2 -25 0 -7 3 -2 5
12 5 14 0 19 -2 13 -5z m1764 1 c-3 -3 -12 -4 -19 -1 -8 3 -5 6 6 6 11 1 17
-2 13 -5z m-1097 -14 c-8 -5 -22 -10 -30 -10 -13 0 -13 1 0 10 8 5 22 10 30
10 13 0 13 -1 0 -10z m1150 0 c13 -9 13 -10 0 -10 -8 0 -22 5 -30 10 -13 9
-13 10 0 10 8 0 22 -5 30 -10z m-1227 -27 c-7 -2 -19 -2 -25 0 -7 3 -2 5 12 5
14 0 19 -2 13 -5z m1977 -18 c-7 -9 -15 -13 -19 -10 -3 3 1 10 9 15 21 14 24
12 10 -5z m-2313 -1 c-3 -3 -12 -4 -19 -1 -8 3 -5 6 6 6 11 1 17 -2 13 -5z
m1708 -4 c13 -5 14 -9 5 -9 -8 0 -24 4 -35 9 -13 5 -14 9 -5 9 8 0 24 -4 35
-9z m-2130 -30 c3 -5 1 -10 -4 -10 -6 0 -11 5 -11 10 0 6 2 10 4 10 3 0 8 -4
11 -10z m2215 0 c8 -5 11 -10 5 -10 -5 0 -17 5 -25 10 -8 5 -10 10 -5 10 6 0
17 -5 25 -10z m363 -7 c-7 -2 -19 -2 -25 0 -7 3 -2 5 12 5 14 0 19 -2 13 -5z
m70 0 c-7 -2 -21 -2 -30 0 -10 3 -4 5 12 5 17 0 24 -2 18 -5z m-2078 -13 c-3
-5 -11 -10 -16 -10 -6 0 -7 5 -4 10 3 6 11 10 16 10 6 0 7 -4 4 -10z m1690 0
c3 -5 1 -10 -4 -10 -6 0 -11 5 -11 10 0 6 2 10 4 10 3 0 8 -4 11 -10z m-2008
-6 c-3 -3 -12 -4 -19 -1 -8 3 -5 6 6 6 11 1 17 -2 13 -5z m-297 -35 c0 -6 -4
-7 -10 -4 -5 3 -10 11 -10 16 0 6 5 7 10 4 6 -3 10 -11 10 -16z m147 15 c-3
-3 -12 -4 -19 -1 -8 3 -5 6 6 6 11 1 17 -2 13 -5z m400 0 c-3 -3 -12 -4 -19
-1 -8 3 -5 6 6 6 11 1 17 -2 13 -5z m2243 -24 c0 -5 -5 -10 -11 -10 -5 0 -7 5
-4 10 3 6 8 10 11 10 2 0 4 -4 4 -10z m-325 -10 c8 -13 -5 -13 -25 0 -13 8
-13 10 2 10 9 0 20 -4 23 -10z m-2062 -27 c-7 -2 -19 -2 -25 0 -7 3 -2 5 12 5
14 0 19 -2 13 -5z m2280 -20 c-13 -2 -35 -2 -50 0 -16 2 -5 4 22 4 28 0 40 -2
28 -4z m-2523 -34 c11 -7 4 -8 -25 -3 -50 8 -58 14 -19 14 16 0 36 -5 44 -11z
m73 4 c-7 -2 -21 -2 -30 0 -10 3 -4 5 12 5 17 0 24 -2 18 -5z m1490 -234 c65
-7 120 -15 122 -19 2 -4 -25 -30 -61 -59 -71 -57 -116 -113 -145 -179 -37 -84
-21 -92 67 -33 147 98 374 185 484 185 41 0 76 -6 94 -15 29 -16 29 -16 -75
-29 -269 -31 -437 -99 -577 -232 -28 -27 -62 -52 -77 -58 -35 -13 -226 -13
-261 0 -15 6 -53 34 -84 63 -92 85 -158 124 -271 161 -108 35 -248 66 -300 66
-38 0 -37 15 2 29 50 17 80 13 192 -23 114 -38 242 -99 318 -152 58 -41 69
-42 69 -9 0 54 -81 167 -166 233 -25 20 -41 38 -37 42 13 13 171 32 303 39
153 7 249 5 403 -10z m-2114 -173 c12 -30 29 -60 37 -67 24 -20 16 -27 -23
-22 -30 3 -48 -2 -86 -26 -59 -38 -80 -77 -52 -97 17 -13 22 -11 49 15 71 68
118 56 165 -41 32 -69 67 -185 58 -194 -3 -3 -15 0 -27 6 -45 24 -144 -21
-138 -63 4 -30 32 -32 67 -6 29 21 31 21 55 5 35 -23 75 -106 84 -173 8 -63
31 -89 56 -63 12 13 12 28 1 110 -8 52 -20 127 -28 165 -8 39 -13 72 -11 74 7
8 34 -68 34 -96 0 -51 38 -196 88 -343 27 -80 48 -148 46 -152 -10 -16 -85
-18 -139 -4 -210 55 -399 345 -435 666 -23 205 5 295 105 341 61 28 69 25 94
-35z m3674 43 c112 -31 147 -152 117 -406 -10 -95 -63 -262 -110 -349 -66
-122 -164 -226 -260 -274 -50 -25 -163 -39 -174 -22 -6 11 38 161 97 327 l25
70 4 -60 c3 -56 5 -60 28 -60 23 0 25 4 36 87 11 87 35 137 72 157 18 9 56 -1
67 -18 9 -16 45 -13 52 4 13 37 -70 90 -124 80 l-35 -6 7 33 c11 53 52 167 69
193 9 14 27 32 40 40 21 14 28 14 59 1 20 -8 40 -24 47 -35 16 -30 60 -29 60
2 0 24 -47 75 -87 96 -62 32 -133 -5 -189 -97 -3 -5 -54 41 -54 48 0 4 17 12
38 18 20 6 56 30 78 52 37 36 50 56 68 113 6 20 17 21 69 6z m-2538 -124 c269
-44 428 -153 465 -321 35 -155 -87 -386 -254 -478 -98 -55 -170 -70 -336 -70
-312 0 -548 92 -625 244 -37 73 -67 214 -69 320 -1 87 1 99 27 143 15 26 40
55 54 64 34 23 245 93 308 103 87 13 335 11 430 -5z m1895 -15 c154 -40 232
-90 266 -167 28 -65 10 -287 -32 -393 -45 -116 -106 -172 -244 -228 -113 -45
-234 -65 -395 -66 -229 -1 -341 38 -453 159 -132 141 -184 328 -126 451 53
111 194 205 364 243 135 30 135 30 345 26 157 -2 205 -7 275 -25z m-2867 -101
c-6 -21 -7 -21 -20 -4 -20 29 -17 48 6 35 13 -7 17 -16 14 -31z m1740 -323
c18 -19 49 -62 68 -96 132 -233 210 -311 367 -364 224 -77 572 -46 790 69 45
24 82 41 82 37 -1 -21 -44 -141 -88 -244 -55 -127 -154 -302 -223 -393 -24
-32 -51 -67 -59 -79 -87 -121 -317 -306 -475 -380 -129 -61 -164 -75 -280
-107 -111 -30 -131 -33 -270 -33 -133 -1 -162 3 -253 27 -270 72 -474 189
-667 381 -107 107 -126 130 -225 281 -85 128 -154 267 -221 445 -44 115 -43
116 56 64 275 -147 725 -147 922 0 87 64 133 122 209 260 27 49 65 107 85 128
33 35 40 38 92 38 51 0 59 -3 90 -34z m-655 -1515 c117 -59 328 -123 467 -140
150 -19 355 16 574 100 44 17 83 35 87 40 15 25 22 0 28 -103 4 -62 7 -121 7
-130 1 -49 -100 -206 -200 -312 -64 -67 -179 -151 -259 -189 -59 -28 -77 -32
-152 -32 -72 0 -94 5 -144 28 -142 67 -317 234 -407 389 -58 99 -60 108 -53
242 4 69 9 126 11 126 2 0 20 -8 41 -19z m-66 -298 c39 -88 181 -270 260 -334
23 -19 56 -46 73 -60 38 -32 97 -66 155 -90 101 -41 -91 -5 -216 40 -79 29
-197 92 -209 111 -8 13 47 13 100 0 45 -10 65 0 46 24 -13 16 -114 36 -183 36
-44 0 -48 3 -82 48 -19 27 -46 68 -60 92 l-25 44 57 57 c31 31 60 57 65 58 4
0 13 -11 19 -26z m1299 -19 c18 -19 58 -50 87 -67 28 -17 52 -36 52 -42 0 -12
-48 -87 -77 -121 -15 -18 -33 -22 -118 -28 -114 -6 -175 -21 -175 -41 0 -21
12 -25 56 -15 55 12 138 15 144 5 7 -12 -110 -81 -194 -114 -91 -37 -257 -71
-338 -71 l-63 1 71 28 c118 46 198 102 311 217 76 77 134 155 170 228 15 31
30 56 33 56 3 0 22 -16 41 -36z m-1476 -119 c9 -25 21 -45 26 -45 5 0 9 -7 9
-15 0 -23 159 -176 222 -213 93 -55 210 -101 315 -124 54 -12 100 -24 103 -26
3 -2 -3 -9 -13 -17 -14 -10 -30 -10 -85 0 -267 52 -470 184 -588 385 -42 72
-51 99 -37 113 11 12 30 -11 48 -58z m1710 15 c9 -15 -43 -109 -101 -181 -111
-138 -292 -236 -508 -274 -115 -20 -166 -20 -166 0 0 10 10 15 34 15 61 0 227
39 312 74 161 66 304 187 377 318 32 58 41 66 52 48z m-838 -487 c28 -34 32
-117 7 -131 -8 -5 -21 -19 -27 -32 -16 -32 -93 -37 -103 -8 -3 10 -16 30 -30
45 -29 32 -30 54 -3 109 22 48 36 54 94 49 29 -3 46 -11 62 -32z"/>
<path d="M2560 5369 c-7 -11 -10 -51 -8 -90 2 -38 1 -69 -2 -69 -3 0 -14 -3
-26 -6 -32 -9 -54 20 -55 74 -2 104 -30 129 -73 65 -32 -46 -37 -131 -9 -158
13 -14 14 -23 6 -48 -6 -18 -11 -60 -12 -95 l0 -63 47 3 47 3 -1 68 c0 63 1
67 22 67 13 0 26 5 29 10 5 8 11 7 21 -1 11 -9 13 -26 8 -75 -7 -62 -6 -64 20
-73 31 -12 55 -5 58 18 5 60 -6 368 -14 379 -16 19 -46 14 -58 -9z"/>
<path d="M3430 5341 c-20 -16 -25 -31 -30 -87 -4 -45 -1 -75 7 -92 11 -20 10
-32 -4 -72 -15 -43 -15 -52 -3 -75 9 -18 20 -25 32 -22 10 3 20 1 23 -3 3 -4
16 -3 29 3 22 11 24 19 28 92 3 91 30 145 72 145 26 0 56 28 56 52 0 29 -27
41 -75 34 -35 -6 -45 -4 -45 7 0 12 -39 37 -58 37 -4 0 -18 -9 -32 -19z"/>
<path d="M3066 5323 c-10 -33 -26 -148 -26 -185 0 -20 5 -60 11 -88 12 -58 30
-64 73 -25 30 27 34 44 22 97 -6 26 -3 46 9 72 10 20 21 36 26 36 20 0 31 -46
26 -111 -3 -37 -3 -76 0 -88 8 -30 49 -38 74 -15 19 17 20 26 15 122 -4 61
-12 115 -21 133 -20 38 -58 47 -102 24 -18 -10 -34 -16 -36 -14 -2 2 -11 16
-20 32 -20 31 -43 35 -51 10z"/>
<path d="M2795 5319 c-75 -23 -106 -92 -86 -190 18 -85 42 -123 82 -129 57 -9
111 7 141 42 15 17 25 34 23 38 -3 4 -25 5 -50 2 -54 -6 -59 9 -9 27 51 18 61
47 39 113 -33 102 -61 121 -140 97z m75 -89 c0 -23 -4 -24 -31 -9 -23 12 -16
29 12 29 12 0 19 -7 19 -20z"/>
<path d="M3886 5269 c-20 -33 -36 -65 -36 -70 0 -25 -23 -3 -52 51 -46 84 -88
79 -88 -10 0 -36 5 -52 24 -69 13 -13 27 -39 31 -59 7 -39 5 -49 -9 -44 -4 1
-19 -4 -32 -13 -19 -12 -22 -21 -18 -48 8 -42 29 -74 54 -82 30 -10 78 23 86
59 11 56 65 156 95 178 22 17 29 30 29 55 0 44 -22 113 -36 113 -7 0 -28 -27
-48 -61z"/>
<path d="M2950 4828 c-42 -29 -62 -59 -51 -77 7 -11 15 -10 45 4 27 13 40 15
48 7 8 -8 6 -13 -8 -18 -36 -11 -61 -26 -89 -51 -23 -22 -26 -32 -22 -65 3
-22 12 -47 20 -56 9 -9 18 -29 22 -44 12 -45 32 -55 60 -28 23 22 26 22 43 7
20 -18 49 -22 69 -9 10 6 43 82 43 98 0 1 -12 4 -27 6 -17 2 -28 9 -27 18 0 8
4 45 8 81 l6 65 -38 42 c-45 48 -57 50 -102 20z m48 -196 c6 -18 -15 -14 -22
4 -4 10 -1 14 6 12 6 -2 14 -10 16 -16z"/>
<path d="M3227 4788 c-20 -62 -20 -259 0 -279 31 -31 114 43 92 82 -20 38 -3
121 27 133 20 8 32 -44 27 -120 -5 -74 4 -97 42 -108 16 -4 25 1 37 22 22 37
12 215 -15 255 -20 31 -63 45 -86 28 -30 -21 -45 -25 -49 -12 -6 17 -39 51
-50 51 -5 0 -16 -24 -25 -52z"/>
<path d="M3720 4830 c-8 -5 -33 -10 -55 -10 -54 -1 -107 -29 -119 -62 -7 -21
-4 -41 15 -90 24 -60 27 -63 64 -69 22 -3 35 -7 30 -8 -6 0 -30 -19 -53 -40
-55 -51 -56 -81 -5 -116 21 -14 43 -25 49 -25 6 0 32 16 57 35 64 49 110 154
73 168 -23 9 -25 45 -5 68 22 26 22 21 9 55 -8 21 -7 31 6 45 24 27 14 54 -21
57 -17 1 -37 -2 -45 -8z m-40 -140 c0 -5 -7 -10 -16 -10 -8 0 -12 5 -9 10 3 6
10 10 16 10 5 0 9 -4 9 -10z m-5 -180 c-3 -5 -11 -10 -16 -10 -6 0 -7 5 -4 10
3 6 11 10 16 10 6 0 7 -4 4 -10z"/>
<path d="M2589 4783 c-6 -15 -17 -39 -23 -52 -16 -35 -13 -295 4 -315 11 -14
17 -14 52 6 l39 22 -6 56 -7 56 35 -4 c31 -3 39 1 73 42 48 57 57 89 40 131
-22 52 -62 77 -112 69 -24 -3 -50 -1 -63 5 -19 10 -22 8 -32 -16z m134 -85 c9
-31 -10 -60 -36 -56 -22 3 -34 35 -23 64 9 23 53 17 59 -8z"/>
<path d="M2430 2987 c-98 -31 -180 -183 -166 -309 19 -182 159 -303 297 -257
142 48 219 243 158 404 -25 67 -59 109 -118 147 -49 31 -105 36 -171 15z m202
-94 c22 -20 23 -46 2 -67 -24 -24 -61 -20 -80 9 -15 23 -15 27 0 50 19 29 51
32 78 8z m-206 -348 c8 -19 -13 -45 -36 -45 -23 0 -44 26 -36 45 3 9 18 15 36
15 18 0 33 -6 36 -15z"/>
<path d="M3753 2979 c-51 -25 -98 -77 -127 -138 -16 -36 -21 -66 -21 -136 0
-79 3 -97 28 -145 16 -30 38 -66 50 -78 33 -36 111 -72 155 -72 55 0 138 45
174 94 51 71 61 104 62 201 0 79 -3 97 -28 147 -28 59 -88 118 -139 137 -44
17 -108 13 -154 -10z m219 -86 c22 -20 23 -41 1 -65 -32 -36 -83 -17 -83 32 0
48 45 67 82 33z m-206 -348 c8 -19 -13 -45 -36 -45 -23 0 -44 26 -36 45 3 9
18 15 36 15 18 0 33 -6 36 -15z"/>
<path d="M3085 2409 c-5 -5 -36 -33 -67 -62 -54 -50 -58 -56 -58 -98 0 -55 49
-138 81 -139 3 0 20 27 38 59 33 62 61 200 48 234 -7 19 -26 21 -42 6z m-11
-116 c-4 -21 -14 -56 -22 -77 l-15 -39 -19 23 c-26 33 -22 64 14 99 41 40 50
39 42 -6z"/>
<path d="M2530 1821 c-8 -16 -4 -24 22 -46 36 -31 125 -74 178 -87 167 -40
186 -42 405 -41 220 0 259 4 460 48 79 17 219 70 235 90 24 29 -26 63 -55 36
-22 -19 -179 -64 -305 -87 -114 -21 -167 -25 -340 -25 -174 0 -220 3 -304 21
-99 22 -187 55 -238 91 -33 24 -45 24 -58 0z"/>
<path d="M3116 216 c-20 -31 -20 -46 -2 -46 16 0 46 26 46 39 0 5 -6 14 -14
20 -10 9 -17 6 -30 -13z"/>
<path d="M3170 212 c0 -23 19 -42 42 -42 23 0 23 22 0 43 -24 22 -42 21 -42
-1z"/>
</g>
</svg>
